<svg width="1024" height="1024" viewBox="0 0 1024 1024" fill="none" xmlns="http://www.w3.org/2000/svg">
<g filter="url(#filter0_d)">
<rect x="40" y="40" width="944" height="944" rx="280" fill="#0B1419"/>
<g transform="translate(512, 500) scale(0.45) translate(-1374, -1360)">
<path d="M1374 715C1393.15 715 1405.2 714.985 1415.73 715.357C1716.59 725.979 1958.02 967.412 1968.64 1268.27C1969.01 1278.8 1969 1290.85 1969 1310V1813.85C1969 1919.42 1883.42 2005 1777.85 2005C1720.74 2005 1676.6 1978.68 1646.62 1953.86C1617.41 1929.66 1593.4 1899.83 1577.54 1880.28C1577.11 1879.74 1576.86 1879.54 1576.85 1879.53C1576.83 1879.52 1576.83 1879.52 1576.84 1879.52C1576.83 1879.51 1576.8 1879.5 1576.76 1879.48C1576.65 1879.43 1576 1879.12 1574.53 1878.8C1573.04 1878.48 1570.39 1878.08 1566.31 1878.08C1561.26 1878.08 1558.39 1878.69 1557.13 1879.03C1556.31 1879.26 1555.91 1879.45 1555.78 1879.52C1555.51 1879.74 1554.6 1880.64 1553.26 1883.02C1539.35 1907.68 1519.3 1936.12 1491.91 1959.42C1464.1 1983.07 1424.17 2005 1374 2005C1323.83 2005 1283.9 1983.07 1256.09 1959.42C1228.7 1936.12 1208.65 1907.68 1194.74 1883.02C1193.4 1880.64 1192.48 1879.74 1192.21 1879.52C1192.09 1879.45 1191.69 1879.26 1190.87 1879.03C1189.61 1878.69 1186.74 1878.08 1181.69 1878.08C1177.61 1878.08 1174.96 1878.48 1173.47 1878.8C1172 1879.12 1171.35 1879.43 1171.24 1879.48C1171.2 1879.5 1171.17 1879.52 1171.16 1879.52C1171.17 1879.52 1171.17 1879.51 1171.15 1879.53C1171.14 1879.54 1170.89 1879.74 1170.46 1880.28C1154.6 1899.83 1130.59 1929.66 1101.38 1953.86C1071.4 1978.68 1027.26 2005 970.154 2005C864.583 2005 779 1919.42 779 1813.85V1310C779 1290.85 778.985 1278.8 779.357 1268.27C789.979 967.412 1031.41 725.979 1332.27 715.357C1342.8 714.985 1354.85 715 1374 715Z" fill="#D9D9D9" stroke="url(#paint0_linear)" stroke-width="190" stroke-linejoin="round"/>
<path d="M1374 760C1393.54 760 1404.6 759.992 1414.15 760.329C1691.39 770.117 1913.88 992.607 1923.67 1269.85C1924.01 1279.4 1924 1290.46 1924 1310V1813.85C1924 1894.56 1858.56 1960 1777.85 1960C1735.21 1960 1700.96 1940.43 1675.33 1919.2C1650.09 1898.3 1628.76 1872 1612.5 1851.93C1608.08 1846.49 1602.85 1842.1 1596.29 1838.94C1589.75 1835.79 1580.27 1833.08 1566.31 1833.08C1549.15 1833.08 1538.57 1837.16 1531.73 1841.48C1524.6 1845.99 1518.8 1852.51 1514.06 1860.91C1501.8 1882.66 1484.85 1906.35 1462.76 1925.14C1440.44 1944.12 1410.47 1960 1374 1960C1337.53 1960 1307.56 1944.12 1285.24 1925.14C1263.15 1906.35 1246.2 1882.66 1233.94 1860.91C1229.2 1852.51 1223.4 1845.99 1216.27 1841.48C1209.43 1837.16 1198.85 1833.08 1181.69 1833.08C1167.73 1833.08 1158.25 1835.79 1151.71 1838.94C1145.15 1842.1 1139.92 1846.49 1135.5 1851.93C1119.24 1872 1097.91 1898.3 1072.67 1919.2C1047.04 1940.43 1012.79 1960 970.154 1960C889.436 1960 824 1894.56 824 1813.85V1310C824 1290.46 823.992 1279.4 824.329 1269.85C834.117 992.607 1056.61 770.117 1333.85 760.329C1343.4 759.992 1354.46 760 1374 760Z" fill="#D9D9D9" stroke="#0B1419" stroke-width="100" stroke-linejoin="round"/>
<ellipse cx="1190.92" cy="1172.38" rx="97.892" ry="119.048" fill="#0B1419"/>
<ellipse cx="1557.04" cy="1172.38" rx="97.892" ry="119.048" fill="#0B1419"/>
</g>
</g>
<defs>
<filter id="filter0_d" x="0" y="0" width="1024" height="1024" filterUnits="userSpaceOnUse" color-interpolation-filters="sRGB">
<feFlood flood-opacity="0" result="BackgroundImageFix"/>
<feColorMatrix in="SourceAlpha" type="matrix" values="0 0 0 0 0 0 0 0 0 0 0 0 0 0 0 0 0 0 127 0" result="hardAlpha"/>
<feOffset dy="4"/>
<feGaussianBlur stdDeviation="20"/>
<feComposite in2="hardAlpha" operator="out"/>
<feColorMatrix type="matrix" values="0 0 0 0 0 0 0 0 0 0 0 0 0 0 0 0 0 0 0.5 0"/>
<feBlend mode="normal" in2="BackgroundImageFix" result="effect1_dropShadow"/>
<feBlend mode="normal" in="SourceGraphic" in2="effect1_dropShadow" result="shape"/>
</filter>
<linearGradient id="paint0_linear" x1="1874" y1="748" x2="698" y2="2108" gradientUnits="userSpaceOnUse">
<stop stop-color="#5E02FF"/>
<stop offset="0.32" stop-color="#00A5FF"/>
<stop offset="0.63" stop-color="#30CEAD"/>
<stop offset="1" stop-color="#69FF00"/>
</linearGradient>
</defs>
</svg>
